<svg width="60" height="52" viewBox="0 0 60 52" fill="none" xmlns="http://www.w3.org/2000/svg">
<path fill-rule="evenodd" clip-rule="evenodd" d="M52.5037 1.50294C52.5037 1.00145 52.2237 0.467961 51.8237 0.207091C51.5333 0.0177204 49.7667 0.00109633 29.9897 0.00109633C9.45805 0.00109633 8.10852 -0.04567 7.83806 0.471681C7.79648 0.551204 7.78041 0.644056 7.72408 0.752456C7.34838 1.47544 7.45754 1.78456 9.06568 4.5545C12.1593 9.88264 13.8168 12.7665 13.8168 12.8205C13.8168 12.851 10.9417 12.8758 7.42777 12.8758C1.13888 12.8758 1.03349 12.88 0.705284 13.1368C0.307361 13.4483 0 14.0017 0 14.4064C0 14.678 0.760173 16.0668 3.16479 20.1882C3.68619 21.0819 4.84541 23.0787 5.74087 24.6256C6.63632 26.1724 8.33164 29.0974 9.50832 31.1254C10.685 33.1535 13.0169 37.1753 14.6901 40.0628C16.3634 42.9502 17.9992 45.7626 18.3251 46.3126C18.651 46.8626 19.4701 48.2733 20.1451 49.4476C21.4696 51.7514 21.7083 52 22.5953 52C22.9809 52 23.1992 51.9149 23.4776 51.6563C23.6811 51.4671 24.9025 49.4844 26.1917 47.2501C29.7376 41.1051 29.9466 40.7502 30.0173 40.7506C30.0534 40.7509 30.3647 41.2431 30.7093 41.8443C34.2912 48.0957 36.2423 51.3701 36.5558 51.6563C36.8492 51.924 37.0564 52 37.4937 52C38.3106 52 38.6105 51.6608 40.1451 49.0001C41.6882 46.3246 43.0443 43.9845 47.6006 36.1342C49.4134 33.011 52.0559 28.4549 53.473 26.0094C54.8901 23.564 56.789 20.2975 57.6928 18.7507C60.1024 14.6263 60.1117 14.6067 59.9325 14.0113C59.8511 13.7407 59.6114 13.3744 59.4002 13.1976L59.0161 12.8758H52.6062C47.5297 12.8758 46.2092 12.8433 46.2574 12.7196C46.3163 12.5686 47.1387 11.1401 50.7862 4.85287C51.988 2.78129 52.5037 1.77531 52.5037 1.50294ZM20.6623 10.4761C19.9024 9.15965 19.1524 7.83918 18.9957 7.54169L18.7107 7.00095H30.0291H41.3476L40.9279 7.73243C40.6972 8.1348 39.943 9.45415 39.2522 10.6641L37.9961 12.8643L30.0201 12.8669L22.044 12.8697L20.6623 10.4761ZM12.0633 21.4381C11.7382 20.8882 11.4039 20.3107 11.3202 20.1549L11.168 19.8717L14.5767 19.9049L17.9854 19.9382L21.9356 26.7403C24.3814 30.9519 25.8573 33.6161 25.8111 33.736C25.7225 33.9656 22.7344 39.1404 22.6025 39.2926C22.5524 39.3504 22.203 38.8723 21.826 38.2302C20.6304 36.1942 17.951 31.5864 15.2597 26.938C13.8267 24.4631 12.3884 21.9881 12.0633 21.4381ZM30.0414 26.4232C29.9642 26.4692 26.4988 20.5943 26.3084 20.0944C26.2301 19.8891 26.4577 19.8757 30.0201 19.8757C33.2408 19.8757 33.8049 19.9024 33.7469 20.0525C33.7094 20.1499 33.0153 21.3733 32.2045 22.7712C31.3937 24.1692 30.5943 25.5516 30.4279 25.8432C30.2616 26.1347 30.0876 26.3957 30.0414 26.4232ZM38.6199 25.8131C40.328 22.8569 41.8061 20.3117 41.9047 20.1569C42.0834 19.8768 42.0973 19.8757 45.4232 19.8757C48.535 19.8757 48.7567 19.8904 48.6791 20.0915C48.6019 20.2918 47.6405 21.9654 44.2076 27.8755C43.4689 29.1474 41.6931 32.2129 40.2613 34.6879C38.8296 37.1628 37.6148 39.2335 37.5616 39.2895C37.4654 39.3909 34.1651 33.8608 34.1651 33.598C34.1651 33.5219 34.4687 32.9485 34.8397 32.3238C35.2108 31.6991 36.9119 28.7692 38.6199 25.8131Z" fill="#EC1B2E"/>
</svg>
